<svg width="100%" height="100%" viewBox="0 0 12521 2900" version="1.1" xmlns="http://www.w3.org/2000/svg"  style="fill-rule:evenodd;clip-rule:evenodd;stroke-linejoin:round;stroke-miterlimit:2;"><path d="M2469.78,423.75c-273.246,-273.262 -636.579,-423.75 -1023.02,-423.75c-386.441,0 -749.758,150.488 -1023,423.75c-273.262,273.246 -423.75,636.563 -423.75,1023c0,386.459 150.488,749.759 423.75,1023.02c273.246,273.262 636.563,423.75 1023,423.75c386.442,0 749.775,-150.487 1023.02,-423.75c273.262,-273.246 423.75,-636.579 423.75,-1023.02c0,-386.441 -150.504,-749.758 -423.75,-1023Z" style="fill:#33cc95;fill-rule:nonzero;"/><path d="M1511.96,510.554c20.833,5.209 36.458,15.625 49.479,31.25c18.229,23.438 26.041,52.084 26.041,85.938l0,416.666l132.813,0l-0,-419.27c-0,-36.459 2.604,-67.709 -7.813,-96.355c-13.02,-26.041 -26.041,-49.479 -46.875,-70.312c-23.437,-20.834 -49.479,-33.854 -80.729,-46.875c-20.833,-7.813 -46.875,-10.417 -72.916,-13.021l-0,-96.354l-130.209,-0l0,96.354c-26.041,2.604 -52.083,5.208 -72.916,13.021c-31.25,13.021 -57.292,26.041 -80.73,46.875c-20.833,20.833 -33.854,44.271 -46.875,70.312c-10.416,28.646 -7.812,59.896 -7.812,96.355l-0,351.562c-0,0 -2.604,26.042 -0,57.292l-0,23.437c-0,26.042 2.604,57.292 7.812,75.521c10.417,44.271 23.438,88.542 41.667,125c18.229,39.063 39.063,75.521 59.896,106.771c23.437,33.854 70.312,98.958 70.312,98.958c5.209,5.209 15.625,18.229 28.646,31.25l0,885.417c-20.833,-5.208 -36.458,-15.625 -49.479,-31.25c-18.229,-20.833 -26.042,-49.479 -26.042,-83.333l0,-416.667l-132.812,-0l-0,361.979c-0,36.458 -2.604,122.396 10.417,151.042c13.02,26.041 23.437,52.083 44.27,72.916c23.438,18.23 49.48,33.855 80.73,44.271c20.833,7.813 46.875,13.021 72.916,15.625l0,96.354l130.209,0l-0,-96.354c26.041,-2.604 52.083,-7.812 72.916,-15.625c31.25,-10.416 57.292,-26.041 80.729,-44.271c20.834,-20.833 33.855,-46.875 44.271,-72.916c13.021,-28.646 10.417,-450.521 10.417,-486.979c2.604,-41.667 -0,-80.73 -7.813,-114.584c-10.416,-46.875 -20.833,-88.541 -39.062,-127.604c-18.229,-36.458 -49.479,-62.5 -70.313,-96.354c-7.812,-10.417 -49.479,-54.688 -91.145,-98.958l-0,-927.084Zm-205.73,117.188c0,-33.854 7.813,-62.5 26.042,-85.938c13.021,-15.625 28.646,-26.041 49.479,-31.25l0,755.209c-18.229,-28.646 -33.854,-57.292 -44.271,-88.542c-18.229,-57.292 -31.25,-125 -31.25,-200.521l0,-348.958Zm205.73,1018.23c23.437,28.646 41.666,54.687 46.875,70.312c18.229,57.292 28.645,125 28.645,197.917l0,351.563c0,33.854 -7.812,62.5 -26.041,83.333c-13.021,15.625 -28.646,26.042 -49.479,31.25l-0,-734.375Z" style="fill:#fff;fill-rule:nonzero;"/><g><path d="M3876.52,955.858c52.764,-0 94.295,14.829 124.585,44.487c30.291,29.659 45.437,73.425 45.437,131.296l-0,735.675c-0,57.871 -14.662,101.638 -43.973,131.296c-29.312,29.658 -70.352,44.487 -123.116,44.487l-8.792,0c-27.364,0 -55.212,-7.233 -83.544,-21.704c-28.338,-14.466 -53.254,-33.275 -74.748,-56.421l0,429.688l-96.737,-0l0,-1432.29l79.149,0l11.724,75.954c21.493,-24.595 46.899,-44.487 76.216,-59.679c29.312,-15.191 57.65,-22.787 85.008,-22.787l8.791,-0Zm-32.244,1026.47c27.359,-0 51.785,-9.404 73.285,-28.213c21.494,-18.804 32.244,-47.741 32.244,-86.804l-0,-735.675c-0,-39.062 -10.75,-68 -32.244,-86.808c-21.5,-18.809 -45.926,-28.209 -73.285,-28.209l-8.791,0c-27.364,0 -54.722,11.934 -82.081,35.805c-27.358,23.87 -41.035,55.341 -41.035,94.404l0,718.312c3.906,36.171 18.562,64.746 43.967,85.721c25.406,20.979 51.785,31.467 79.149,31.467l8.791,-0Z" style="fill:#fff;fill-rule:nonzero;"/><path d="M4357.15,1982.33l29.312,-0c27.359,-0 51.79,-9.404 73.284,-28.213c21.5,-18.804 32.244,-47.741 32.244,-86.804l0,-277.775l96.737,0l0,277.775c0,57.871 -19.895,101.638 -59.681,131.296c-39.785,29.658 -84.918,44.487 -135.391,44.487l-49.466,0c-44.643,0 -86.376,-14.829 -125.199,-44.487c-38.829,-29.658 -58.24,-73.425 -58.24,-131.296l-0,-735.675c-0,-56.425 19.895,-99.829 59.681,-130.208c39.786,-30.384 84.918,-45.575 135.391,-45.575l37.833,-0c50.473,-0 95.606,14.829 135.391,44.487c39.786,29.659 59.681,73.425 59.681,131.296l0,377.604l-331.24,0l-0,358.071c-0,39.063 11.234,68 33.707,86.808c22.473,18.805 44.462,28.209 65.956,28.209Zm134.84,-523l0,-327.692c0,-39.062 -10.744,-68 -32.244,-86.808c-21.494,-18.809 -45.925,-28.209 -73.284,-28.209l-20.515,0c-27.364,0 -52.28,9.4 -74.753,28.209c-22.473,18.808 -33.707,47.746 -33.707,86.808l-0,327.692l234.503,-0Z" style="fill:#fff;fill-rule:nonzero;"/><path d="M4931.7,1016.62c-27.358,0 -55.206,13.017 -83.539,39.059c-28.338,26.041 -42.509,57.871 -42.509,95.487l0.005,885.417l-96.737,-0l0,-1074.22l96.737,0l-0.641,73.784c21.342,-24.596 46.573,-44.125 75.687,-58.596c29.115,-14.467 57.261,-21.7 84.434,-21.7l11.679,-0c60.154,-0 103.817,18.808 130.995,56.425c9.709,14.466 17.96,31.829 24.759,52.083c6.793,20.254 10.187,42.679 10.187,67.275l-0,273.438l-96.732,-0l0,-273.438c0,-39.062 -10.75,-68 -32.244,-86.808c-21.499,-18.809 -45.925,-28.209 -73.284,-28.209l-8.797,0Z" style="fill:#fff;fill-rule:nonzero;"/><path d="M5591.26,1385.55l0,-251.737c0,-37.613 -11.239,-66.55 -33.712,-86.804c-22.474,-20.255 -47.389,-30.38 -74.748,-30.38l-17.588,0c-27.359,0 -52.274,10.125 -74.748,30.38c-22.473,20.254 -33.712,49.191 -33.712,86.804l-0,136.721c-0,47.741 17.098,88.975 51.3,123.7c34.197,34.72 72.305,68.358 114.32,100.908c42.02,32.554 80.122,66.55 114.325,101.996c34.196,35.446 51.295,77.766 51.295,126.954l-0,143.229c-0,57.871 -19.541,101.638 -58.623,131.296c-39.088,29.658 -82.081,44.487 -128.981,44.487l-43.973,0c-50.805,0 -96.242,-14.829 -136.303,-44.487c-40.061,-29.658 -60.092,-73.425 -60.092,-131.296l0,-253.904l87.94,-0l0,253.904c0,37.617 11.724,66.192 35.176,85.721c23.447,19.533 48.853,29.296 76.211,29.296l29.318,-0c25.405,-0 48.852,-9.763 70.352,-29.296c21.494,-19.529 32.243,-48.104 32.243,-85.721l0,-138.887c0,-44.85 -17.098,-83.913 -51.3,-117.188c-34.197,-33.275 -72.305,-66.192 -114.32,-98.742c-42.02,-32.554 -80.122,-67.275 -114.325,-104.166c-34.196,-36.892 -51.295,-81.379 -51.295,-133.463l0,-143.229c0,-56.425 20.031,-99.829 60.092,-130.208c40.061,-30.384 85.498,-45.575 136.303,-45.575l26.385,-0c52.764,-0 98.69,14.829 137.772,44.487c39.088,29.659 58.629,73.425 58.629,131.296l-0,253.904l-87.941,0Z" style="fill:#fff;fill-rule:nonzero;"/><path d="M6000.32,2043.1c-50.474,0 -95.6,-14.829 -135.386,-44.487c-39.791,-29.658 -59.681,-73.425 -59.681,-131.296l0,-735.675c0,-57.871 19.89,-101.637 59.681,-131.296c39.786,-29.658 84.912,-44.487 135.386,-44.487l37.838,-0c50.473,-0 95.6,14.829 135.386,44.487c39.791,29.659 59.681,73.425 59.681,131.296l-0,735.675c-0,57.871 -19.89,101.638 -59.681,131.296c-39.786,29.658 -84.913,44.487 -135.386,44.487l-37.838,0Zm10.125,-1026.48c-27.359,0.004 -52.274,9.404 -74.748,28.213c-22.473,18.808 -33.713,47.746 -33.713,86.808l0,735.675c0,39.063 11.24,68 33.713,86.808c22.474,18.805 47.389,28.209 74.748,28.209l20.52,-0c27.359,-0 51.785,-9.404 73.285,-28.209c21.494,-18.808 32.243,-47.745 32.243,-86.808l0,-735.675c0,-39.062 -10.749,-68 -32.243,-86.808c-21.5,-18.809 -45.926,-28.209 -73.285,-28.209l-20.52,0l-0,-0.004Z" style="fill:#fff;fill-rule:nonzero;"/><path d="M6576.19,1016.62c-25.405,0 -51.79,11.934 -79.149,35.805c-27.358,23.87 -42.993,53.17 -46.899,87.891l-0,896.267l-96.732,-0l0,-1074.22l96.732,0l-0.642,73.784c21.342,-24.596 46.573,-44.125 75.688,-58.596c29.114,-14.467 57.261,-21.7 84.439,-21.7l11.679,-0c50.439,-0 90.709,14.829 120.803,44.487c30.088,29.659 45.138,73.425 45.138,131.296l-0,904.946l-96.737,-0l-0,-904.946c-0,-39.062 -10.745,-68 -32.244,-86.808c-21.494,-18.809 -45.926,-28.209 -73.285,-28.209l-8.791,0Z" style="fill:#fff;fill-rule:nonzero;"/><path d="M7067.59,2043.1c-104.831,0 -157.24,-58.595 -157.24,-175.783l-0,-256.075c-0,-57.871 14.656,-101.637 43.967,-131.296c29.317,-29.658 69.379,-44.487 120.19,-44.487l11.723,-0c52.764,-0 104.549,17.362 155.36,52.083l0,-355.9c0,-39.062 -11.239,-68 -33.712,-86.808c-22.474,-18.809 -47.39,-28.209 -74.748,-28.209l-20.52,0c-27.359,0 -51.785,9.4 -73.285,28.209c-21.494,18.808 -32.244,47.746 -32.244,86.808l0,273.438l-96.731,-0l-0,-273.438c-0,-57.871 19.412,-101.637 58.235,-131.296c38.828,-29.658 84.439,-44.487 136.837,-44.487l37.833,-0c50.473,-0 95.6,15.191 135.391,45.575c39.786,30.379 59.676,73.783 59.676,130.208l-0,904.946l-96.732,-0l-2.245,-52.083c-52.399,39.062 -105.771,58.595 -160.122,58.595l-11.633,0Zm45.02,-553.387c-27.359,-0 -51.785,9.404 -73.285,28.212c-21.494,18.809 -32.244,47.742 -32.244,86.805l0,269.1c0,39.062 10.75,67.995 32.244,86.804c21.5,18.808 45.926,28.212 73.285,28.212l8.796,0c25.406,0 50.811,-8.321 76.211,-24.958c25.406,-16.638 40.067,-42.317 43.973,-77.038l0,-319.012c-3.906,-30.383 -18.567,-50.996 -43.973,-61.85c-25.4,-10.85 -48.852,-16.275 -70.352,-16.275l-14.655,-0Z" style="fill:#fff;fill-rule:nonzero;"/><rect x="7464.37" y="519.662" width="96.737" height="1516.93" style="fill:#fff;"/><path d="M8144.43,2036.59l-0,-1015.62l-76.217,-0l-0,-58.592l76.217,0l-0,-282.121c-0,-28.933 5.684,-55.337 17.059,-79.208c11.374,-23.871 28.472,-43.767 51.3,-59.679c22.823,-15.913 51.824,-26.767 87.001,-32.554c35.176,-5.784 76.216,-4.338 123.116,4.341l-0,58.596c-48.858,-8.683 -91.362,-2.896 -127.512,17.359c-36.155,20.254 -54.233,52.083 -54.233,95.487l-0,277.779l246.232,0l0,1074.22l-96.731,-0l-0,-1015.62l-149.501,-0l-0,1015.62l-96.731,-0Z" style="fill:#fff;fill-rule:nonzero;"/><path d="M8839.17,1016.62c-25.406,0 -51.785,11.934 -79.143,35.805c-27.359,23.87 -42.994,53.17 -46.906,87.891l0,896.267l-96.731,-0l0,-1074.22l96.731,0l-0.641,73.784c21.347,-24.596 46.573,-44.125 75.687,-58.596c29.121,-14.467 57.261,-21.7 84.44,-21.7l11.678,-0c50.446,-0 90.709,14.829 120.803,44.487c30.094,29.659 45.138,73.425 45.138,131.296l0,904.946l-96.731,-0l-0,-904.946c-0,-39.062 -10.75,-68 -32.25,-86.808c-21.494,-18.809 -45.92,-28.209 -73.278,-28.209l-8.797,0Z" style="fill:#fff;fill-rule:nonzero;"/><path d="M9330.56,2043.1c-104.824,0 -157.239,-58.595 -157.239,-175.783l-0,-256.075c-0,-57.871 14.655,-101.637 43.972,-131.296c29.312,-29.658 69.373,-44.487 120.184,-44.487l11.724,-0c52.764,-0 104.554,17.362 155.36,52.083l-0,-355.9c-0,-39.062 -11.234,-68 -33.707,-86.808c-22.473,-18.809 -47.389,-28.209 -74.754,-28.209l-20.514,0c-27.359,0 -51.791,9.4 -73.285,28.209c-21.499,18.808 -32.243,47.746 -32.243,86.808l-0,273.438l-96.737,-0l-0,-273.438c-0,-57.871 19.411,-101.637 58.24,-131.296c38.823,-29.658 84.434,-44.487 136.832,-44.487l37.833,-0c50.473,-0 95.605,15.191 135.391,45.575c39.785,30.379 59.681,73.783 59.681,130.208l-0,904.946l-96.737,-0l-2.24,-52.083c-52.398,39.062 -105.776,58.595 -160.127,58.595l-11.634,0Zm45.026,-553.387c-27.359,-0 -51.791,9.404 -73.285,28.212c-21.499,18.809 -32.243,47.742 -32.243,86.805l-0,269.1c-0,39.062 10.744,67.995 32.243,86.804c21.494,18.808 45.926,28.212 73.285,28.212l8.791,0c25.406,0 50.811,-8.321 76.217,-24.958c25.405,-16.638 40.061,-42.317 43.967,-77.038l-0,-319.012c-3.906,-30.383 -18.562,-50.996 -43.967,-61.85c-25.406,-10.85 -48.859,-16.275 -70.352,-16.275l-14.656,-0Z" style="fill:#fff;fill-rule:nonzero;"/><path d="M9944.26,1016.62c-25.405,0 -51.785,11.934 -79.143,35.805c-27.359,23.87 -42.994,53.17 -46.905,87.891l-0,896.267l-96.732,-0l0,-1074.22l96.732,0l-0.636,73.784c21.342,-24.596 46.573,-44.125 75.687,-58.596c29.115,-14.467 57.261,-21.7 84.434,-21.7l11.678,-0c50.446,-0 90.715,14.829 120.804,44.487c30.093,29.659 45.137,73.425 45.137,131.296l0,904.946l-96.731,-0l0,-904.946c0,-39.062 -10.75,-68 -32.244,-86.808c-21.499,-18.809 -45.926,-28.209 -73.284,-28.209l-8.797,0Z" style="fill:#fff;fill-rule:nonzero;"/><path d="M10609.7,1405.08l-0,-273.438c-0,-39.062 -10.75,-68 -32.25,-86.808c-21.494,-18.809 -45.92,-28.209 -73.279,-28.209l-20.52,0c-27.358,0 -52.28,9.4 -74.753,28.209c-22.474,18.808 -33.707,47.746 -33.707,86.808l-0,735.675c-0,39.063 11.233,68 33.707,86.804c22.473,18.809 44.462,28.213 65.956,28.213l29.317,-0c27.359,-0 51.785,-9.404 73.279,-28.213c21.5,-18.804 32.25,-47.741 32.25,-86.804l-0,-277.779l96.731,-0l-0,277.779c-0,57.871 -19.896,101.638 -59.681,131.296c-39.786,29.658 -84.918,44.487 -135.391,44.487l-49.466,0c-44.643,0 -86.376,-14.829 -125.199,-44.487c-38.823,-29.658 -58.24,-73.425 -58.24,-131.296l-0,-735.675c-0,-56.425 19.895,-99.829 59.681,-130.208c39.785,-30.384 84.918,-45.575 135.391,-45.575l37.833,-0c50.473,-0 95.605,14.829 135.391,44.487c39.785,29.659 59.681,73.425 59.681,131.296l-0,273.438l-96.731,-0Z" style="fill:#fff;fill-rule:nonzero;"/><path d="M11020.1,1982.33l29.311,-0c27.364,-0 51.791,-9.404 73.285,-28.213c21.499,-18.804 32.243,-47.741 32.243,-86.804l0,-277.775l96.737,0l0,277.775c0,57.871 -19.895,101.638 -59.681,131.296c-39.785,29.658 -84.917,44.487 -135.391,44.487l-49.466,0c-44.643,0 -86.375,-14.829 -125.199,-44.487c-38.823,-29.658 -58.24,-73.425 -58.24,-131.296l0,-735.675c0,-56.425 19.896,-99.829 59.681,-130.208c39.786,-30.384 84.918,-45.575 135.392,-45.575l37.832,-0c50.474,-0 95.606,14.829 135.391,44.487c39.786,29.659 59.681,73.425 59.681,131.296l0,377.604l-331.24,0l0,358.071c0,39.063 11.234,68 33.707,86.808c22.474,18.805 44.463,28.209 65.957,28.209Zm134.839,-523l0,-327.692c0,-39.062 -10.744,-68 -32.243,-86.808c-21.494,-18.809 -45.921,-28.209 -73.285,-28.209l-20.514,0c-27.359,0 -52.28,9.4 -74.754,28.209c-22.473,18.808 -33.707,47.746 -33.707,86.808l0,327.692l234.503,-0Z" style="fill:#fff;fill-rule:nonzero;"/><path d="M11700.1,1385.55l-0.006,-251.737c0.006,-37.613 -11.234,-66.55 -33.707,-86.804c-22.473,-20.255 -47.389,-30.38 -74.748,-30.38l-17.588,0c-27.358,0 -52.28,10.125 -74.753,30.38c-22.474,20.254 -33.707,49.191 -33.707,86.804l-0,136.721c-0,47.741 17.098,88.975 51.295,123.7c34.202,34.72 72.31,68.358 114.325,100.908c42.014,32.554 80.122,66.55 114.319,101.996c34.203,35.446 51.301,77.766 51.301,126.954l-0,143.229c-0,57.871 -19.541,101.638 -58.629,131.296c-39.082,29.658 -82.075,44.487 -128.975,44.487l-43.973,0c-50.811,0 -96.247,-14.829 -136.308,-44.487c-40.062,-29.658 -60.092,-73.425 -60.092,-131.296l-0,-253.904l87.94,-0l-0,253.904c-0,37.617 11.729,66.192 35.176,85.721c23.452,19.533 48.858,29.296 76.217,29.296l29.311,-0c25.406,-0 48.858,-9.763 70.352,-29.296c21.5,-19.529 32.25,-48.104 32.25,-85.721l-0,-138.887c-0,-44.85 -17.104,-83.913 -51.301,-117.188c-34.197,-33.275 -72.305,-66.192 -114.325,-98.742c-42.015,-32.554 -80.123,-67.275 -114.32,-104.166c-34.196,-36.892 -51.3,-81.379 -51.3,-133.463l-0,-143.229c-0,-56.425 20.03,-99.829 60.092,-130.208c40.061,-30.384 85.497,-45.575 136.308,-45.575l26.385,-0c52.764,-0 98.684,14.829 137.772,44.487c39.082,29.659 58.629,73.425 58.629,131.296l-0,253.904l-87.94,0Z" style="fill:#fff;fill-rule:nonzero;"/></g></svg>